<?xml version="1.0" standalone="no"?>
<!DOCTYPE svg PUBLIC "-//W3C//DTD SVG 20010904//EN"
 "http://www.w3.org/TR/2001/REC-SVG-20010904/DTD/svg10.dtd">
<svg version="1.0" xmlns="http://www.w3.org/2000/svg"
 width="700.000000pt" height="700.000000pt" viewBox="0 0 700.000000 700.000000"
 preserveAspectRatio="xMidYMid meet">
<metadata>
Created by potrace 1.11, written by Peter Selinger 2001-2013
</metadata>
<g transform="translate(0.000000,700.000000) scale(0.100000,-0.100000)"
fill="#000000" stroke="none">
<path d="M3287 6884 c-1 -1 -42 -5 -92 -9 -49 -3 -101 -8 -115 -10 -14 -2 -47
-6 -75 -10 -27 -3 -57 -8 -65 -10 -8 -3 -33 -7 -55 -10 -71 -11 -319 -74 -426
-109 -292 -95 -562 -225 -824 -395 -63 -41 -253 -180 -281 -206 -7 -5 -38 -32
-70 -60 -80 -66 -304 -288 -304 -299 0 -5 15 -23 34 -40 81 -74 102 -92 112
-99 7 -4 48 30 100 84 73 75 201 190 319 288 67 56 345 241 361 241 3 0 18 9
34 20 33 24 181 98 298 149 179 79 413 154 592 190 58 12 116 24 130 26 14 3
44 8 66 11 23 2 50 6 60 8 11 2 55 7 99 11 44 4 91 9 105 10 14 2 67 4 118 4
l92 1 0 111 0 110 -105 -2 c-58 -2 -107 -4 -108 -5z"/>
<path d="M3437 6234 c-1 -1 -47 -4 -102 -8 -800 -53 -1522 -535 -1885 -1258
-107 -213 -187 -455 -216 -656 -3 -20 -7 -42 -9 -49 -9 -28 -19 -212 -19 -358
0 -210 11 -312 50 -495 83 -386 274 -760 539 -1054 40 -44 106 -144 146 -220
91 -173 128 -322 135 -536 2 -80 9 -172 15 -205 51 -288 276 -529 564 -606 78
-21 96 -21 845 -21 747 0 767 0 845 21 282 75 502 306 560 590 8 36 16 134 19
216 5 175 28 292 82 426 57 145 119 240 275 424 219 259 397 637 468 994 38
187 46 276 45 506 -2 489 -146 936 -427 1326 -91 127 -130 172 -257 299 -379
379 -883 611 -1420 655 -72 6 -249 12 -253 9z m268 -229 c421 -45 806 -207
1130 -475 77 -64 257 -255 321 -340 214 -288 348 -605 399 -950 19 -124 26
-420 12 -550 -33 -330 -148 -657 -330 -933 -62 -96 -90 -132 -195 -256 -179
-213 -283 -444 -327 -726 -3 -22 -8 -98 -11 -169 -6 -180 -16 -232 -64 -327
-59 -117 -173 -213 -310 -264 l-75 -28 -750 0 c-821 -1 -781 -3 -911 60 -88
42 -195 151 -239 244 -43 92 -55 154 -60 317 -9 342 -120 635 -337 893 -149
176 -225 288 -311 456 -88 172 -174 430 -193 578 -3 28 -8 53 -10 57 -17 28
-25 419 -11 553 30 302 141 628 299 883 126 203 273 367 489 547 121 102 416
263 594 325 156 54 404 104 560 112 77 4 263 0 330 -7z"/>
<path d="M3355 5792 c-22 -1 -67 -6 -100 -12 -33 -5 -82 -12 -110 -16 -27 -3
-53 -8 -57 -10 -4 -3 -41 -13 -82 -24 -82 -21 -272 -92 -300 -113 -17 -12 -15
-19 30 -109 l47 -95 61 27 c97 44 243 90 334 106 12 2 34 6 50 9 109 20 341
26 457 11 100 -12 107 -13 195 -34 94 -23 245 -74 301 -102 l35 -18 47 94 c26
52 47 97 47 100 0 15 -247 110 -350 134 -109 26 -117 27 -214 41 -77 10 -305
17 -391 11z"/>
<path d="M2078 5252 l-78 -78 65 -64 c36 -35 65 -67 65 -70 0 -3 -19 -16 -42
-30 -59 -35 -167 -144 -213 -215 -88 -134 -125 -271 -121 -445 3 -98 8 -129
35 -210 86 -254 280 -437 536 -506 91 -24 236 -29 330 -11 295 56 536 253 625
512 l18 51 -572 572 -571 571 -77 -77z m596 -751 l369 -370 -27 -41 c-94 -143
-277 -245 -460 -257 -78 -6 -212 12 -222 29 -3 4 -13 8 -23 8 -25 0 -132 71
-180 119 -57 57 -106 135 -132 211 -19 53 -23 86 -23 180 -1 104 2 122 28 185
31 76 72 140 120 191 40 42 145 114 165 114 9 0 182 -166 385 -369z"/>
<path d="M4273 4757 l-571 -572 18 -50 c76 -217 261 -397 490 -477 143 -49
339 -60 468 -24 256 70 452 259 539 519 24 73 27 97 27 217 0 102 -4 151 -18
200 -28 97 -89 217 -149 290 -47 57 -165 160 -199 173 -8 3 11 29 50 69 34 35
62 68 62 73 0 6 -33 42 -73 82 l-73 72 -571 -572z m504 78 c105 -71 178 -162
223 -280 18 -46 24 -85 26 -166 3 -94 0 -114 -25 -185 -60 -173 -181 -292
-356 -350 -91 -30 -246 -28 -345 4 -124 41 -252 135 -317 233 l-27 40 370 370
c203 203 376 369 384 369 8 0 39 -16 67 -35z"/>
<path d="M3195 3353 c-126 -253 -128 -257 -129 -327 -1 -119 53 -207 160 -261
l58 -30 216 1 c239 0 266 6 343 73 71 63 110 189 85 278 -5 21 -64 147 -130
281 l-121 242 -177 0 -177 0 -128 -257z m432 -131 c97 -197 101 -210 74 -243
-19 -24 -21 -24 -197 -25 -175 -1 -179 0 -202 23 -18 18 -22 30 -17 53 5 22
144 308 172 352 2 5 23 8 46 8 l42 -1 82 -167z"/>
<path d="M5089 3501 c-1 -11 -2 -24 -4 -28 -1 -5 -5 -21 -10 -38 -20 -76 -101
-266 -151 -351 -47 -82 -117 -189 -134 -204 -3 -3 -18 -20 -32 -38 l-28 -33
80 -71 c93 -81 82 -83 169 32 76 100 128 185 189 306 46 93 122 297 137 370
l6 32 -73 16 c-136 31 -148 31 -149 7z"/>
<path d="M4560 2583 c-39 -59 -70 -112 -70 -118 0 -15 177 -108 189 -101 5 3
18 24 30 47 12 22 39 64 61 94 l39 53 -31 23 c-17 13 -55 43 -86 67 -30 23
-56 42 -59 42 -2 0 -35 -48 -73 -107z"/>
<path d="M2764 2285 c-65 -15 -113 -44 -166 -104 -75 -83 -82 -118 -83 -411
-1 -259 5 -320 39 -391 25 -53 91 -115 155 -146 l56 -28 735 0 735 0 55 27
c64 32 131 94 156 146 34 72 40 132 39 397 l-1 260 -28 62 c-33 73 -102 143
-173 175 -48 22 -51 22 -758 24 -512 1 -724 -2 -761 -11z m187 -227 c1 -28 1
-180 0 -191 -1 -4 -49 -6 -108 -5 l-108 3 1 68 c2 109 41 147 152 147 57 0 62
-2 63 -22z m439 -88 l0 -110 -110 0 -111 0 2 109 1 110 109 0 109 1 0 -110z
m440 -1 l0 -109 -110 0 -110 0 0 109 0 110 110 0 110 -1 0 -109z m390 84 c35
-29 46 -62 45 -133 l0 -55 -107 -3 -108 -3 -1 28 c-1 15 -2 65 -2 110 l-2 82
74 -1 c61 -1 78 -5 101 -25z m-1269 -425 c1 -13 1 -186 0 -201 -1 -4 -34 -6
-75 -4 -110 4 -139 36 -141 150 l-1 67 108 0 c79 0 108 -3 109 -12z m439 -97
l0 -110 -107 2 -108 2 -3 108 -3 107 111 0 110 0 0 -109z m437 2 l-2 -108
-107 -2 -108 -2 0 110 0 109 110 0 110 0 -3 -107z m438 37 c-2 -112 -42 -151
-153 -147 l-64 2 -2 108 -1 107 111 0 110 0 -1 -70z"/>
<path d="M736 5463 c-65 -90 -172 -262 -221 -355 l-39 -76 -63 -5 c-179 -14
-311 -164 -302 -343 11 -224 254 -372 457 -279 191 87 255 310 138 484 l-34
50 69 122 c82 142 126 212 181 286 32 44 37 56 26 66 -20 20 -152 117 -159
117 -3 0 -27 -30 -53 -67z m-240 -669 c110 -72 19 -240 -103 -189 -36 15 -63
60 -63 106 0 46 56 99 104 99 20 0 48 -7 62 -16z"/>
<path d="M6315 4704 c-44 -19 -83 -39 -88 -43 -4 -4 9 -50 30 -102 l37 -96 96
34 c52 19 98 37 102 41 10 11 -68 197 -83 199 -8 1 -50 -14 -94 -33z"/>
<path d="M6505 4303 c-27 -8 -73 -21 -101 -28 l-51 -15 18 -72 c10 -40 19 -80
19 -88 1 -41 13 -43 119 -24 75 14 101 22 101 34 0 26 -43 210 -49 209 -3 -1
-28 -8 -56 -16z"/>
<path d="M6557 3864 c-4 -3 -82 -13 -104 -14 -20 0 -21 -4 -16 -47 6 -59 11
-111 12 -142 l1 -23 108 5 c59 3 108 6 109 6 3 1 -7 142 -12 166 -2 11 -4 28
-4 38 -1 14 -9 17 -47 15 -25 -2 -46 -4 -47 -4z"/>
<path d="M353 3352 c-21 -3 -22 -7 -17 -77 3 -40 7 -82 9 -92 2 -10 4 -26 4
-37 1 -19 6 -19 146 -1 11 1 32 3 47 4 26 1 27 4 23 34 -5 31 -13 123 -14 160
-1 16 -10 17 -88 15 -49 -2 -98 -4 -110 -6z"/>
<path d="M478 2922 c-72 -13 -88 -19 -88 -34 0 -20 38 -187 45 -199 3 -4 27
-2 53 6 26 7 72 20 103 29 l56 16 -19 77 c-10 43 -21 88 -23 101 -6 25 -8 25
-127 4z"/>
<path d="M6461 2607 c-212 -68 -294 -332 -157 -512 l24 -31 -67 -119 c-37 -66
-84 -146 -105 -177 -21 -31 -35 -62 -31 -68 5 -8 119 -88 161 -113 6 -4 25 16
44 46 18 29 45 70 59 93 14 22 51 86 81 142 l54 102 41 1 c72 2 94 7 145 35
148 81 215 245 160 396 -28 77 -66 127 -127 167 -85 57 -181 69 -282 38z m142
-211 c42 -17 67 -55 67 -102 0 -51 -53 -104 -105 -104 -97 0 -145 112 -78 182
22 23 35 30 76 37 4 0 22 -5 40 -13z"/>
<path d="M604 2501 c-75 -27 -100 -40 -97 -51 10 -33 67 -176 74 -184 8 -9
185 59 194 75 4 6 -34 115 -63 180 -6 13 -20 11 -108 -20z"/>
<path d="M5888 1413 c-130 -156 -375 -376 -573 -514 -154 -108 -431 -261 -590
-326 -173 -70 -379 -135 -535 -168 -8 -2 -35 -8 -60 -14 -52 -12 -78 -16 -180
-30 -161 -22 -250 -29 -377 -30 l-73 -1 0 -111 0 -111 148 6 c81 3 158 8 172
10 14 3 52 7 85 11 33 3 85 10 115 15 30 5 73 12 95 16 22 3 78 14 125 25 519
120 976 340 1380 664 147 117 321 284 430 412 l70 81 -53 44 c-28 23 -54 45
-57 48 -8 10 -54 40 -60 40 -3 0 -31 -30 -62 -67z"/>
</g>
</svg>
